<svg xmlns="http://www.w3.org/2000/svg" viewBox="0 0 500 500" style="enable-background:new 0 0 500 500" xml:space="preserve"><path style="fill:#f0f0f0" d="M81.822 446.215c-92.882-53.626-92.882-140.57 0-194.196 92.882-53.625 243.475-53.625 336.357 0 92.882 53.625 92.882 140.57 0 194.196s-243.475 53.626-336.357 0z"/><path style="fill:#e0e0e0" d="M207.673 456.335 65.869 374.408c-5.532-3.194-5.532-8.421 0-11.615l229.604-132.659c2.278-1.315 6.005-1.315 8.283 0l145.284 83.945c2.921 1.688 2.92 5.905-.002 7.592L215.956 456.335c-2.278 1.316-6.005 1.316-8.283 0z"/><ellipse style="fill:#e0e0e0" cx="384.289" cy="414.637" rx="52.556" ry="30.343"/><path style="fill:#27debf" d="M80.507 326.806s-.299-21.347-9.169-38.774c-8.87-17.427-22.279-29.088-35.635-31.492-13.355-2.405-25.461 8.899-11.904 18.837 13.557 9.938 38.283 21.165 46.893 54.147l9.815-2.718z"/><path style="opacity:.15" d="M80.507 326.806s-.299-21.347-9.169-38.774c-8.87-17.427-22.279-29.088-35.635-31.492-13.355-2.405-25.461 8.899-11.904 18.837 13.557 9.938 38.283 21.165 46.893 54.147l9.815-2.718z"/><path style="fill:#fff" d="M77.106 320.931a.722.722 0 0 0 .635-.925c-10.723-36.399-36.314-53.699-48.348-57.761a.722.722 0 1 0-.462 1.368c11.787 3.979 36.868 20.973 47.424 56.8a.724.724 0 0 0 .751.518z"/><path style="fill:#27debf" d="M81.862 346.95c-4.958 2.852-7.801 4.696-16.895 5.463-5.425.457-12.767-.312-19.098-2.594-1.687-.608-4.296-1.939-2.83-3.563.758-.839 9.678-2.255 12.868-6.008-3.735.998-8.646 2.133-12.51 2.217-3.865.084-7.885-.842-10.851-3.322-2.944-2.462-4.536-6.138-6.027-9.674-.509-1.207-.992-2.687-.21-3.739.497-.668 1.359-.931 2.161-1.155l10.135-2.822c2.205-.47.649-1.927-.186-2.051a19.123 19.123 0 0 0-3.674-.165c-3.87.207-8.144.936-11.303-1.309-1.891-1.344-3.006-3.569-3.48-5.84-.167-.8-.833-11.244-.373-11.369 2.515-.685 5.15-1.05 7.733-1.346 2.451-.281 4.84-.395 7.281-.724a60.774 60.774 0 0 1 8.32-.546c.944.003 1.941.043 2.74.547 1.097.692 1.532 2.075 1.672 3.365.14 1.289.073 2.625.521 3.842 1.188-.103 1.576-1.646 1.545-2.838-.031-1.192-.008-2.678 1.068-3.192.546-.261 1.188-.156 1.78-.035a48.657 48.657 0 0 1 10.948 3.641c1.595.751 3.189 1.62 4.337 2.959 1.695 1.976 2.196 4.717 2.211 7.321.015 2.603-.389 5.205-.219 7.803 2.037-1.819 4.871-7.351 5.093-10.072 4.38 2.816 6.976 8.621 7.792 16.557.538 5.236.406 12.134-.322 17.443-.024.186-.065 1.113-.227 1.206z"/><path style="opacity:.3" d="M81.862 346.95c-4.958 2.852-7.801 4.696-16.895 5.463-5.425.457-12.767-.312-19.098-2.594-1.687-.608-4.296-1.939-2.83-3.563.758-.839 9.678-2.255 12.868-6.008-3.735.998-8.646 2.133-12.51 2.217-3.865.084-7.885-.842-10.851-3.322-2.944-2.462-4.536-6.138-6.027-9.674-.509-1.207-.992-2.687-.21-3.739.497-.668 1.359-.931 2.161-1.155l10.135-2.822c2.205-.47.649-1.927-.186-2.051a19.123 19.123 0 0 0-3.674-.165c-3.87.207-8.144.936-11.303-1.309-1.891-1.344-3.006-3.569-3.48-5.84-.167-.8-.833-11.244-.373-11.369 2.515-.685 5.15-1.05 7.733-1.346 2.451-.281 4.84-.395 7.281-.724a60.774 60.774 0 0 1 8.32-.546c.944.003 1.941.043 2.74.547 1.097.692 1.532 2.075 1.672 3.365.14 1.289.073 2.625.521 3.842 1.188-.103 1.576-1.646 1.545-2.838-.031-1.192-.008-2.678 1.068-3.192.546-.261 1.188-.156 1.78-.035a48.657 48.657 0 0 1 10.948 3.641c1.595.751 3.189 1.62 4.337 2.959 1.695 1.976 2.196 4.717 2.211 7.321.015 2.603-.389 5.205-.219 7.803 2.037-1.819 4.871-7.351 5.093-10.072 4.38 2.816 6.976 8.621 7.792 16.557.538 5.236.406 12.134-.322 17.443-.024.186-.065 1.113-.227 1.206z"/><path style="fill:#fff" d="M81.042 345.963a.6.6 0 0 1-.533-.323c-14.186-27.241-45.57-38.721-53.198-40.304a.602.602 0 0 1-.466-.71.611.611 0 0 1 .71-.466c7.746 1.607 39.614 13.265 54.019 40.925a.601.601 0 0 1-.532.878z"/><path style="fill:#fff" d="M39.818 330.266a.6.6 0 0 1-.046-1.199c15.657-1.229 20.721-7.359 20.771-7.422a.6.6 0 0 1 .942.744c-.212.269-5.37 6.598-21.618 7.875-.017.002-.034.002-.049.002z"/><path style="fill:#27debf" d="M460.035 254.297c-6.94 7.59-19.67 20.08-27.07 32.14-.02.03-.04.06-.05.09-2.89 4.73-4.96 9.39-5.53 13.66l-.52 7.71-3.17-1.83-.53-.31-1.31-.75a6.257 6.257 0 0 1-3.114-5.243c-.509-18.801 4.515-34.782 9.375-44.455 6.65-13.21 19.109-26.681 29.94-25.361 10.069 1.229 11.659 13.769 1.979 24.349z"/><path style="opacity:.15" d="M460.035 254.297c-6.94 7.59-19.67 20.08-27.07 32.14-.02.03-.04.06-.05.09-2.89 4.73-4.96 9.39-5.53 13.66l-.52 7.71-3.17-1.83-.53-.31-1.31-.75a6.257 6.257 0 0 1-3.114-5.243c-.509-18.801 4.515-34.782 9.375-44.455 6.65-13.21 19.109-26.681 29.94-25.361 10.069 1.229 11.659 13.769 1.979 24.349z"/><path style="fill:#fff" d="M454.925 237.237c-13.26 8.38-32.19 37.59-31.76 68.52l-1.31-.75c-.11-31.12 18.98-60.4 32.37-68.87.31-.2.71-.1.9.21.19.3.1.7-.2.89z"/><path style="fill:#27debf" d="M467.895 279.077c-2.31 6.27-15.49 11.71-25.22 20.76a63.098 63.098 0 0 0-6.673 7.253 6.126 6.126 0 0 1-7.897 1.517l-1.16-.67-.08-.04-3.17-1.83c1.88-7.08 5.26-13.79 9.22-19.54.01-.03.03-.06.05-.09 6.44-9.34 14.39-16.09 19.94-17.62 10.91-3 17.76 2.73 14.99 10.26z"/><path style="opacity:.3" d="M467.895 279.077c-2.31 6.27-15.49 11.71-25.22 20.76a63.098 63.098 0 0 0-6.673 7.253 6.126 6.126 0 0 1-7.897 1.517l-1.16-.67-.08-.04-3.17-1.83c1.88-7.08 5.26-13.79 9.22-19.54.01-.03.03-.06.05-.09 6.44-9.34 14.39-16.09 19.94-17.62 10.91-3 17.76 2.73 14.99 10.26z"/><path style="fill:#fff" d="M458.625 275.307c-7.97 2.25-23.41 11.97-30.52 33.3l-1.16-.67c7.21-21.59 22.56-31.41 31.33-33.88.36-.1.7.1.8.45.1.35-.1.71-.45.8z"/><path style="fill:#455a64" d="M73.099 359.309c0 3.47 2.598 7.782 5.801 9.632l126.287 72.926c3.203 1.849 8.397 1.849 11.601 0l222.376-128.389c3.203-1.849 5.8-6.162 5.801-9.632 0-3.47-2.597-7.783-5.8-9.632l-126.287-72.926c-3.203-1.85-8.397-1.85-11.601 0L78.899 349.677c-3.203 1.849-5.8 6.162-5.8 9.632z"/><path style="fill:#37474f" d="M444.969 303.846c0 3.473-2.6 7.778-5.802 9.629L216.785 441.871c-1.601.915-3.702 1.383-5.792 1.383v-12.562c2.09 0 4.191-.468 5.792-1.394l222.381-128.385c2.806-1.617 3.156-4.119 1.052-5.96 2.695 2.095 4.751 5.814 4.751 8.893z"/><path style="fill:#263238" d="M210.99 430.698v12.552c-2.103 0-4.206-.455-5.8-1.38L78.898 368.94c-3.202-1.849-5.8-6.162-5.8-9.631 0-3.255 2.291-7.247 5.211-9.256-2.599 1.862-2.398 4.595.589 6.323l126.292 72.929c1.593.924 3.697 1.393 5.8 1.393z"/><path style="fill:#37474f" d="M67.658 349.884c-2.835-2-2.841-4.665-2.841-8.364l-.001-186.876c0-3.699 2.597-8.197 5.8-10.047L292.992 16.208c3.203-1.85 6.158-.509 9.164 1.226 3.005 1.735 4.921 3.232 4.921 6.931v186.876c0 3.699-2.597 8.197-5.801 10.047L78.899 349.677c-4.849 3.269-8.155 2.384-11.241.207z"/><path style="fill:#263238" d="M78.899 349.679c-4.848 3.264-8.16 2.381-11.241.202-2.832-1.997-2.841-4.665-2.841-8.361V154.647c0-1.853.653-3.897 1.689-5.712l8.284 4.819c-1.047 1.805-1.69 3.849-1.69 5.692v186.882c.001 3.697 2.593 5.194 5.799 3.351z"/><path style="fill:#455a64" d="M307.079 24.36c0-3.692-2.6-5.189-5.803-3.348L78.896 149.407c-1.601.925-3.057 2.516-4.097 4.336l-8.278-4.815h-.01c1.05-1.82 2.506-3.411 4.108-4.336l222.37-128.385c3.203-1.851 6.157-.512 9.163 1.225 3.004 1.737 4.927 3.236 4.927 6.928z"/><path style="fill:#263238" d="m82.019 156.096 214.4-123.752c1.922-1.11 3.48-.21 3.48 2.01V205.76c0 2.22-1.558 4.918-3.48 6.028l-214.4 123.749c-1.922 1.11-3.48.21-3.48-2.009V162.124c0-2.22 1.558-4.918 3.48-6.028z"/><path style="fill:#27debf" d="M82.019 156.096c-1.922 1.11-3.48 3.808-3.48 6.028v170.37l213.139-123.021c1.922-1.11 3.48-3.808 3.48-6.028V33.072L82.019 156.096z"/><path style="opacity:.65;fill:#fff" d="M82.019 156.096c-1.922 1.11-3.48 3.808-3.48 6.028v170.37l213.139-123.021c1.922-1.11 3.48-3.808 3.48-6.028V33.072L82.019 156.096z"/><path style="fill:#37474f" d="m94.951 350.019 206.414-119.172c1.602-.925 4.199-.925 5.801 0l6.005 3.155c1.602.925 1.602 2.424 0 3.348L106.726 356.504c-1.602.925-4.199.924-5.801 0l-5.974-3.136c-1.602-.925-1.602-2.424 0-3.349z"/><path style="fill:#263238" d="m111.141 359.646 206.412-119.173c1.602-.925 3.974-1.054 5.3-.289l53.727 31.02c1.325.765 1.101 2.135-.501 3.06L169.906 393.275c-1.602.925-3.977 1.058-5.306.298l-53.954-30.875c-1.329-.761-1.107-2.127.495-3.052z"/><path style="fill:#455a64" d="m288.295 290.039 6.463-3.731c.275-.159.315-.393.09-.523l-5.701-3.291c-.225-.13-.63-.106-.905.052l-6.463 3.731c-.274.158-.314.392-.089.522l5.701 3.292c.225.13.63.106.904-.052zm-9.018-12.669-6.463 3.731c-.274.159-.315.393-.09.522l5.701 3.291c.225.13.63.106.904-.052l6.463-3.732c.275-.158.316-.393.09-.522l-5.701-3.292c-.224-.128-.629-.104-.904.054zm-20.88 12.055-10.937 6.314c-.274.158-.315.392-.09.522l5.701 3.292c.225.13.63.106.904-.052l10.937-6.314c.275-.158.315-.393.09-.522l-5.7-3.292c-.225-.13-.63-.107-.905.052zm11.435-6.602-6.463 3.732c-.274.158-.315.392-.089.522l5.701 3.292c.224.13.63.107.904-.052l6.463-3.731c.275-.159.315-.393.09-.522l-5.701-3.291c-.226-.132-.631-.108-.905.05zm-25.354 14.638-6.462 3.731c-.275.159-.315.393-.09.522l5.701 3.292c.225.13.629.107.904-.052l6.463-3.732c.274-.158.314-.392.089-.522l-5.7-3.292c-.226-.128-.631-.105-.905.053zm-9.446 5.454-6.463 3.731c-.275.158-.315.392-.09.522l5.701 3.291c.225.13.629.107.904-.052l6.463-3.731c.275-.159.315-.392.09-.522l-5.701-3.291c-.225-.13-.629-.107-.904.052zm23.949 14.401 6.463-3.732c.274-.158.315-.392.089-.522l-5.701-3.291c-.225-.13-.63-.107-.904.052l-6.463 3.731c-.275.159-.315.393-.09.523l5.701 3.291c.225.13.631.107.905-.052zm-9.445 5.453 6.463-3.731c.275-.159.315-.392.09-.522l-5.7-3.291c-.225-.13-.63-.107-.905.052l-6.463 3.731c-.275.159-.315.392-.09.522l5.701 3.292c.224.129.629.106.904-.053zm-9.446 5.454 6.463-3.732c.275-.158.315-.392.09-.522l-5.701-3.292c-.225-.13-.63-.106-.904.052l-6.463 3.731c-.275.159-.315.392-.09.522l5.701 3.292c.225.131.629.107.904-.051zm-9.446 5.453 6.463-3.731c.275-.158.315-.392.09-.522l-5.701-3.291c-.225-.13-.63-.107-.904.052l-6.463 3.731c-.275.158-.315.392-.09.522l5.701 3.291c.225.13.63.107.904-.052zm48.206-38.183 6.462-3.732c.274-.158.315-.392.09-.522l-5.701-3.292c-.224-.13-.63-.106-.904.052l-6.463 3.731c-.275.159-.315.393-.091.522l5.701 3.292c.226.13.631.107.906-.051zm-10.423 16.37 14.417-8.324c.275-.159.315-.392.09-.522l-14.666-8.468c-.225-.13-.63-.106-.904.052l-7.457 4.305c-.275.159-.315.392-.091.522l8.152 4.706c.225.13.184.364-.09.522l-5.965 3.445c-.275.158-.315.392-.09.522l5.701 3.292c.223.13.629.106.903-.052zm-42.84-3.495-6.463 3.732c-.274.158-.315.392-.089.522l5.701 3.292c.225.13.63.106.904-.052l6.463-3.731c.274-.159.315-.393.09-.522l-5.7-3.292c-.227-.13-.632-.107-.906.051zm-9.446 5.454-6.463 3.731c-.275.159-.315.393-.09.523l5.701 3.292c.225.13.63.106.904-.052l6.463-3.731c.275-.158.315-.393.09-.522l-5.701-3.291c-.225-.132-.63-.108-.904.05zm-52.52 58.081c.225.13.63.106.904-.052l6.463-3.732c.274-.158.315-.393.09-.522l-5.701-3.291c-.225-.13-.63-.106-.905.052l-6.462 3.731c-.275.159-.315.392-.09.522l5.701 3.292zm-23.045-14.454-6.463 3.731c-.275.159-.315.392-.09.522l5.701 3.291c.225.13.63.107.904-.052l6.463-3.731c.275-.159.315-.392.09-.522l-5.701-3.291c-.225-.129-.63-.107-.904.052zm11.593 10.712c.225.13.63.107.904-.052l6.463-3.732c.274-.158.315-.392.09-.522l-5.701-3.292c-.225-.13-.63-.106-.905.052l-6.463 3.731c-.275.159-.315.392-.09.522l5.702 3.293zm26.293 5.996 6.463-3.731c.275-.159.315-.392.09-.522l-5.701-3.292c-.225-.129-.63-.106-.905.052l-6.463 3.731c-.274.158-.315.392-.09.522l5.701 3.291c.225.13.63.108.905-.051zm-10.35 5.505c.224.13.63.107.904-.052l6.463-3.732c.274-.158.315-.392.09-.522l-5.701-3.292c-.225-.13-.63-.107-.904.052l-6.463 3.732c-.274.158-.314.392-.089.522l5.7 3.292zm-18.091-27.666-6.463 3.731c-.275.159-.315.392-.09.522l5.701 3.292c.225.13.63.107.904-.052l6.463-3.732c.275-.158.315-.392.09-.522l-5.701-3.291c-.224-.13-.629-.107-.904.052zm47.228-27.267-6.463 3.731c-.274.159-.315.392-.09.522l5.701 3.292c.225.13.63.107.904-.052l6.463-3.732c.275-.158.315-.392.09-.522l-5.701-3.292c-.224-.129-.629-.106-.904.053zm-37.782 21.814-6.463 3.731c-.275.158-.315.393-.09.522l5.701 3.292c.225.13.63.107.904-.052l6.463-3.731c.275-.159.315-.392.09-.522l-5.7-3.292c-.226-.13-.63-.107-.905.052zm47.228-27.268-6.463 3.732c-.275.158-.315.392-.089.522l5.701 3.292c.225.13.629.107.904-.052l6.463-3.731c.275-.159.315-.392.09-.522l-5.701-3.292c-.226-.131-.631-.107-.905.051zm-18.891 10.907-6.463 3.731c-.275.158-.315.392-.09.522l5.701 3.291c.224.13.63.107.904-.052l6.462-3.731c.275-.158.315-.392.09-.522l-5.701-3.291c-.224-.129-.629-.107-.903.052zm-9.446 5.453-6.463 3.732c-.275.158-.315.392-.09.522l5.701 3.292c.225.13.63.106.904-.052l6.463-3.731c.274-.159.315-.393.09-.523l-5.701-3.291c-.224-.13-.63-.107-.904.051zm-9.445 5.454-6.463 3.731c-.275.159-.315.393-.09.522l5.701 3.292c.225.13.63.106.904-.052l6.463-3.732c.274-.158.314-.392.089-.522l-5.701-3.291c-.224-.13-.629-.106-.903.052zm42.84 3.495 6.463-3.732c.275-.158.315-.393.09-.522l-5.701-3.291c-.225-.13-.63-.106-.904.052l-6.463 3.731c-.275.159-.314.393-.089.523l5.7 3.291c.225.13.629.106.904-.052zm88.404-79.269-6.463 3.731c-.275.158-.314.392-.09.522l5.701 3.291c.225.13.63.106.904-.052l6.463-3.731c.275-.159.315-.392.09-.522l-5.701-3.292c-.224-.129-.629-.106-.904.053zm-11.434 6.602-6.463 3.731c-.275.158-.315.392-.09.522l5.701 3.292c.225.13.63.106.904-.052l6.463-3.731c.275-.159.315-.393.09-.522l-5.701-3.292c-.225-.13-.63-.107-.904.052zm20.879-12.055-6.462 3.731c-.274.158-.315.392-.09.522l5.701 3.291c.225.13.63.107.904-.052l6.463-3.731c.275-.159.315-.393.09-.522l-5.701-3.292c-.225-.129-.629-.106-.905.053zm-52.626 48.259 6.463-3.731c.275-.159.315-.392.09-.523l-5.7-3.292c-.225-.13-.63-.106-.904.052l-6.463 3.731c-.275.158-.314.392-.09.522l5.701 3.291c.223.132.628.109.903-.05zm62.977-53.765c-.225-.13-.63-.107-.905.051l-6.462 3.731c-.275.159-.315.392-.09.522l5.701 3.292c.224.13.63.107.904-.052l6.463-3.732c.275-.158.315-.392.09-.522l-5.701-3.29zm-98.754 84.774 6.463-3.731c.275-.159.315-.392.09-.522l-5.701-3.292c-.225-.13-.63-.107-.904.052l-6.463 3.732c-.275.158-.315.392-.089.522l5.701 3.291c.223.13.628.107.903-.052zm115.833-66.877 6.462-3.731c.275-.158.315-.393.09-.522l-5.701-3.291c-.225-.13-.63-.107-.904.052l-6.463 3.731c-.274.158-.315.393-.09.522l5.701 3.291c.225.13.63.107.905-.052zm-18.411.278 6.463-3.732c.274-.158.315-.392.089-.522l-5.701-3.291c-.224-.13-.63-.107-.904.052l-6.463 3.731c-.275.159-.315.393-.09.522l5.701 3.291c.225.131.63.107.905-.051zm10.297-12.998c-.224-.13-.63-.107-.904.052l-6.463 3.732c-.274.158-.314.392-.089.522l5.701 3.291c.225.13.63.107.904-.051l6.463-3.731c.275-.159.315-.392.09-.522l-5.702-3.293zm1.989-1.149 14.666 8.468c.225.13.63.106.904-.052l6.463-3.731c.275-.159.315-.393.09-.522l-14.667-8.468c-.225-.13-.63-.106-.905.052l-6.463 3.731c-.273.159-.313.393-.088.522zm-21.784 12.108-6.463 3.731c-.275.158-.315.392-.09.522l5.701 3.291c.225.13.63.107.904-.052l6.463-3.731c.274-.159.315-.393.09-.522l-5.701-3.292c-.225-.129-.63-.106-.904.053zm-71.091 41.043-6.463 3.732c-.275.159-.315.392-.09.522l5.701 3.291c.225.13.63.107.904-.052l6.463-3.731c.275-.159.315-.392.09-.522l-5.701-3.292c-.225-.13-.629-.106-.904.052zm88.65-33.776c.224.13.63.106.904-.052l6.463-3.731c.274-.159.315-.392.09-.522l-5.701-3.292c-.224-.13-.63-.106-.904.052l-6.463 3.732c-.275.158-.315.392-.09.522l5.701 3.291zm-79.205 28.323-6.462 3.731c-.275.159-.315.392-.09.522l5.701 3.292c.225.13.63.107.904-.052l6.463-3.732c.275-.158.315-.392.09-.522l-5.701-3.292c-.225-.129-.63-.105-.905.053zm-74.411 60.367c.225.13.63.106.905-.052l6.463-3.731c.274-.159.314-.392.089-.522l-5.701-3.292c-.225-.13-.63-.107-.904.052l-6.463 3.732c-.275.158-.315.392-.09.522l5.701 3.291zm-10.599-11.286-6.463 3.732c-.274.158-.315.392-.09.522l5.701 3.291c.225.13.63.106.904-.052l6.463-3.731c.275-.159.315-.392.09-.522l-5.7-3.291c-.226-.131-.631-.107-.905.051zm20.949 5.781 6.463-3.731c.275-.158.315-.392.09-.522l-5.701-3.291c-.225-.13-.63-.107-.905.052l-6.463 3.731c-.274.158-.315.392-.09.522l5.701 3.291c.226.129.63.106.905-.052zm9.445-5.453 6.463-3.731c.275-.159.315-.392.09-.522l-5.701-3.292c-.224-.13-.63-.107-.904.052l-6.463 3.731c-.274.159-.315.393-.09.522l5.701 3.291c.225.13.63.106.904-.051zm9.446-5.454 6.463-3.731c.275-.159.315-.392.09-.523l-5.701-3.291c-.225-.129-.63-.106-.905.053l-6.462 3.731c-.275.158-.315.393-.09.522l5.7 3.292c.226.129.631.106.905-.053zm-30.395-.327-6.462 3.731c-.275.159-.315.392-.09.522l5.701 3.291c.225.13.63.107.904-.052l6.463-3.731c.275-.158.315-.393.09-.522l-5.701-3.291c-.225-.13-.63-.107-.905.052zm9.446-5.454-6.463 3.731c-.275.159-.315.392-.09.522l5.701 3.292c.225.13.63.106.904-.052l6.463-3.732c.274-.158.315-.392.09-.522l-5.701-3.291c-.224-.13-.63-.106-.904.052zm37.783-21.813-6.463 3.731c-.275.159-.315.393-.089.523l5.7 3.291c.225.13.63.107.905-.052l6.462-3.731c.275-.158.315-.393.09-.523l-5.701-3.291c-.225-.13-.63-.107-.904.052zm-9.446 5.453-6.463 3.731c-.274.158-.315.393-.09.522l5.701 3.292c.225.13.63.106.904-.052l6.463-3.731c.275-.159.315-.393.09-.523l-5.701-3.291c-.225-.13-.629-.107-.904.052zm18.891-10.907-6.463 3.731c-.275.159-.315.392-.09.522l5.7 3.292c.225.13.63.106.905-.052l6.463-3.732c.275-.158.314-.392.089-.522l-5.701-3.292c-.223-.129-.628-.105-.903.053zm-37.782 21.813-6.463 3.732c-.275.158-.315.393-.09.522l5.701 3.291c.225.13.63.107.904-.052l6.462-3.731c.275-.159.315-.393.09-.522l-5.701-3.291c-.224-.13-.629-.107-.903.051zm9.445-5.453-6.463 3.731c-.274.159-.315.392-.09.522l5.701 3.292c.224.13.63.107.904-.052l6.463-3.732c.275-.158.315-.392.09-.522l-5.701-3.292c-.224-.128-.63-.105-.904.053zm-12.342 35.354 6.463-3.731c.275-.158.315-.392.09-.522l-5.701-3.291c-.225-.13-.629-.107-.904.052l-6.463 3.731c-.275.159-.315.392-.09.522l5.701 3.292c.225.129.63.106.904-.053zm-50.171-2.561-5.701-3.291c-.225-.13-.63-.106-.904.052l-6.463 3.732c-.274.158-.315.392-.09.522l5.7 3.292c.225.13.63.106.905-.052l6.463-3.731c.274-.16.314-.394.09-.524zm12.444 3.167-5.701-3.291c-.225-.13-.629-.107-.904.052l-9.943 5.74c-.275.158-.315.392-.09.522l5.701 3.291c.225.13.629.107.904-.052l9.943-5.74c.275-.158.315-.392.09-.522zm-20.838-9.735-5.701-3.291c-.225-.13-.63-.107-.904.052l-7.954 4.592c-.274.158-.315.393-.09.522l5.7 3.291c.225.13.631.106.904-.052l7.955-4.592c.275-.157.315-.392.09-.522zm6.099-3.52c.224.13.63.106.904-.052l6.463-3.732c.275-.158.315-.392.09-.522l-5.701-3.292c-.224-.13-.63-.106-.905.052l-6.462 3.731c-.275.159-.315.393-.09.522l5.701 3.293zm26.191 16.997-5.701-3.292c-.225-.129-.63-.106-.904.053l-12.429 7.175c-.275.159-.315.392-.09.522l5.7 3.292c.225.13.63.106.904-.052l12.429-7.176c.276-.159.316-.392.091-.522zm4.492 7.759-5.701-3.291c-.224-.13-.63-.107-.904.051l-7.954 4.593c-.275.159-.315.393-.09.522l5.701 3.292c.225.13.63.106.904-.052l7.954-4.592c.274-.159.314-.393.09-.523zm39.546-65.303c.224.13.629.107.904-.051l6.463-3.732c.275-.158.315-.392.09-.522l-5.7-3.291c-.225-.13-.63-.107-.905.052l-6.462 3.731c-.275.159-.315.392-.09.522l5.7 3.291zm-18.892 10.907c.225.13.63.106.904-.052l6.463-3.732c.274-.158.314-.392.089-.522l-5.7-3.291c-.225-.13-.63-.107-.904.052l-6.463 3.731c-.275.159-.315.392-.09.523l5.701 3.291zM144.886 350.6c.225.13.63.107.904-.052l6.463-3.731c.274-.158.315-.393.09-.522l-5.701-3.292c-.225-.129-.63-.106-.904.052l-6.463 3.731c-.274.158-.315.392-.09.522l5.701 3.292zm51.338-29.64c.225.13.63.107.904-.052l6.463-3.731c.274-.158.315-.392.09-.522l-5.701-3.291c-.225-.129-.629-.107-.904.052l-6.463 3.731c-.275.158-.315.392-.09.522l5.701 3.291zm-18.891 10.908c.225.129.63.106.905-.053l6.462-3.731c.275-.158.315-.392.09-.522l-5.7-3.291c-.225-.13-.63-.107-.905.052l-6.463 3.731c-.275.159-.314.393-.09.522l5.701 3.292zm-5.956 49.679c-.226-.13-.63-.107-.905.052l-9.943 5.74c-.275.158-.315.392-.09.522l5.701 3.291c.225.13.63.107.904-.052l9.943-5.74c.275-.158.314-.392.089-.522l-5.699-3.291zm-7.6-41.853c.225.13.63.106.904-.052l6.463-3.731c.275-.159.314-.393.09-.523l-5.701-3.292c-.225-.13-.63-.106-.905.052l-6.463 3.731c-.275.158-.315.392-.09.522l5.702 3.293zm-9.445 5.453c.225.13.63.107.904-.052l6.463-3.732c.274-.158.315-.393.09-.522l-5.701-3.291c-.225-.13-.63-.106-.904.052l-6.463 3.731c-.274.159-.314.392-.089.522l5.7 3.292zm192.037-64.632c-.225-.13-.63-.107-.904.052l-15.908 9.185c-.275.158-.315.392-.091.523l5.702 3.291c.224.13.629.107.904-.052l15.908-9.185c.274-.158.315-.392.09-.522l-5.701-3.292zm-20.88 12.055c-.225-.13-.629-.107-.904.052l-6.463 3.731c-.275.159-.315.392-.09.522l5.7 3.291c.225.129.63.106.905-.052l6.463-3.731c.275-.158.315-.392.09-.522l-5.701-3.291zm-128.136 70.68 6.463-3.731c.274-.159.314-.393.089-.522l-5.7-3.292c-.225-.13-.63-.107-.904.052l-6.463 3.731c-.275.159-.315.392-.09.522l5.701 3.292c.225.13.63.106.904-.052zm109.245-59.773c-.225-.13-.63-.106-.904.052l-6.463 3.731c-.275.159-.315.392-.09.522l5.701 3.291c.225.13.63.107.904-.052l6.463-3.732c.275-.158.315-.392.09-.522l-5.701-3.29zm49.217-28.416c-.225-.13-.63-.107-.904.052l-6.463 3.732c-.274.158-.315.393-.09.522l5.7 3.291c.225.13.63.107.904-.052l6.463-3.731c.275-.159.315-.392.09-.522l-5.7-3.292zm15.147-2.161-14.667-8.468c-.225-.13-.63-.107-.904.052l-6.463 3.732c-.275.158-.315.392-.09.522l14.666 8.468c.225.13.63.106.904-.052l6.463-3.732c.275-.159.315-.393.091-.522zm-99.66 50.955c-.225-.13-.63-.107-.904.052l-7.954 4.592c-.275.158-.315.392-.09.522l5.701 3.291c.225.13.63.107.904-.052l7.954-4.592c.275-.158.315-.393.09-.522l-5.701-3.291zm23.862-13.777c-.225-.13-.63-.106-.904.052l-9.943 5.741c-.274.158-.314.392-.09.522l5.701 3.291c.225.13.63.106.904-.052l9.943-5.741c.275-.158.315-.392.09-.522l-5.701-3.291zm-45.736 26.406c-.225-.13-.63-.107-.904.052l-53.194 30.712c-.275.158-.315.392-.09.522l5.701 3.292c.225.13.63.107.904-.052l53.194-30.711c.275-.159.315-.393.09-.523l-5.701-3.292zm-56.177 32.434c-.225-.13-.63-.107-.904.052l-7.955 4.592c-.275.158-.315.392-.09.522l5.701 3.292c.225.129.63.106.904-.053l7.955-4.593c.274-.158.314-.392.089-.521l-5.7-3.291zm67.113-38.748c-.225-.13-.629-.107-.904.052l-7.954 4.592c-.275.159-.315.392-.09.522l5.701 3.291c.224.131.63.107.904-.051l7.954-4.593c.275-.158.315-.392.089-.522l-5.7-3.291zm-78.05 45.062c-.225-.13-.63-.106-.904.052l-7.954 4.592c-.275.159-.315.392-.09.522l5.7 3.292c.225.13.63.107.904-.052l7.954-4.592c.275-.159.315-.392.09-.523l-5.7-3.291zm99.924-57.691c-.225-.13-.629-.107-.904.052l-7.955 4.592c-.274.158-.315.392-.09.522l5.701 3.292c.224.13.63.107.904-.052l7.954-4.592c.275-.158.315-.392.09-.522l-5.7-3.292zm33.806-19.518c-.225-.13-.63-.106-.905.052l-6.463 3.731c-.275.158-.314.392-.089.522l5.701 3.292c.225.13.63.106.904-.052l6.463-3.731c.275-.159.315-.392.09-.523l-5.701-3.291zm20.508-15.14 6.463-3.731c.275-.159.315-.392.09-.522l-5.701-3.291c-.225-.13-.63-.107-.904.052l-6.463 3.731c-.274.158-.315.392-.09.522l5.701 3.291c.224.13.63.107.904-.052zm-38.811 1.703 6.463-3.731c.275-.158.315-.392.09-.522l-5.701-3.291c-.225-.13-.63-.107-.904.052l-6.463 3.731c-.275.159-.315.392-.09.522l5.7 3.291c.225.129.63.106.905-.052zm-24.823 35.036 18.891-10.907c.275-.159.315-.392.09-.522l-5.701-3.292c-.225-.129-.629-.107-.904.052l-18.891 10.907c-.275.158-.315.392-.09.522l5.701 3.291c.225.131.629.108.904-.051zm53.284-31.234c.224.13.63.107.904-.052l6.463-3.731c.275-.159.315-.392.09-.523l-5.701-3.292c-.225-.13-.63-.106-.904.052l-6.463 3.732c-.274.158-.314.392-.09.522l5.701 3.292zm-8.061-5.227 6.463-3.732c.274-.158.315-.392.09-.522l-5.701-3.292c-.225-.13-.63-.107-.904.052l-6.463 3.731c-.275.159-.315.392-.09.522l5.701 3.292c.224.13.629.107.904-.051zm-54.669 41.915 6.463-3.732c.275-.159.315-.392.09-.522l-5.701-3.292c-.225-.13-.63-.107-.904.052l-6.463 3.732c-.275.158-.315.392-.09.522l5.701 3.292c.225.13.63.106.904-.052zm41.85-24.632c.225.13.63.106.905-.052l6.463-3.732c.275-.158.315-.392.09-.522l-5.701-3.292c-.225-.13-.63-.107-.904.052l-6.463 3.731c-.275.159-.315.392-.09.522l5.7 3.293zm-89.077 51.899 6.463-3.732c.274-.158.314-.392.09-.522l-5.701-3.291c-.225-.13-.63-.107-.904.052l-6.463 3.731c-.275.159-.314.392-.09.522l5.701 3.292c.224.13.629.106.904-.052zm9.445-5.454 6.463-3.731c.275-.159.315-.392.09-.522l-5.701-3.292c-.225-.129-.629-.106-.904.052l-6.463 3.731c-.275.158-.315.392-.09.522l5.701 3.291c.225.131.629.108.904-.051zm-18.891 10.907 6.463-3.731c.275-.158.315-.393.09-.522l-5.701-3.291c-.225-.13-.63-.107-.904.052l-6.463 3.731c-.275.158-.315.392-.09.522l5.701 3.292c.225.129.629.106.904-.053zm37.782-21.813 6.462-3.731c.275-.159.315-.393.09-.522l-5.701-3.291c-.225-.13-.63-.106-.905.052l-6.463 3.732c-.274.158-.315.392-.09.522l5.701 3.292c.227.127.632.104.906-.054zm-9.445 5.453 6.463-3.731c.275-.158.315-.392.09-.522l-5.701-3.291c-.225-.13-.63-.107-.905.052l-6.463 3.731c-.274.159-.315.393-.09.522l5.701 3.292c.225.128.63.106.905-.053zm18.891-10.907 6.463-3.731c.274-.158.315-.392.09-.522l-5.701-3.291c-.225-.13-.63-.107-.904.052l-6.463 3.731c-.274.158-.315.392-.089.522l5.7 3.292c.224.129.629.106.904-.053zm52.193-75.49c.225.13.63.107.905-.052l6.463-3.732c.275-.158.314-.392.089-.522l-1.517-.877c-.225-.13-.63-.106-.905.052l-6.463 3.732c-.273.158-.314.392-.089.522l1.517.877zm-47.124 29.622c.225.13.63.107.904-.052l6.463-3.731c.274-.159.315-.393.09-.522l-5.701-3.291c-.225-.131-.63-.107-.904.051l-6.463 3.732c-.275.158-.315.392-.09.522l5.701 3.291zm18.891-10.906c.224.13.63.106.904-.052l6.463-3.731c.275-.159.315-.392.091-.523l-5.701-3.291c-.225-.13-.63-.106-.904.052l-6.463 3.731c-.274.158-.315.393-.09.522l5.7 3.292zm-30.425 17.566c.225.13.629.107.904-.052l6.463-3.731c.274-.158.314-.392.09-.522l-5.701-3.292c-.225-.129-.63-.106-.904.053l-6.463 3.731c-.275.158-.315.392-.09.522l5.701 3.291zm20.979-12.113c.224.13.63.107.905-.052l6.463-3.732c.274-.158.315-.392.089-.522l-5.701-3.291c-.224-.13-.629-.107-.904.052l-6.463 3.731c-.275.159-.315.392-.09.522l5.701 3.292zm-39.871 23.02c.225.129.63.106.905-.053l6.463-3.731c.275-.158.315-.392.09-.523l-5.701-3.291c-.225-.13-.63-.107-.904.052l-6.463 3.731c-.275.159-.314.393-.09.522l5.7 3.293zm9.446-5.454c.225.13.63.106.904-.052l6.463-3.731c.274-.158.314-.392.089-.522l-5.7-3.292c-.225-.13-.63-.106-.904.052l-6.463 3.731c-.275.159-.315.392-.09.522l5.701 3.292zm49.213-30.828c.225.13.63.106.905-.052l6.463-3.732c.274-.158.315-.392.09-.521l-1.518-.876c-.225-.13-.63-.107-.904.051l-6.463 3.732c-.275.158-.315.392-.09.522l1.517.876zm28.337-16.361c.225.13.63.107.905-.051l6.463-3.732c.275-.159.315-.392.09-.522l-1.517-.877c-.225-.129-.63-.106-.904.052l-6.463 3.731c-.274.158-.315.393-.09.523l1.516.876zm11.976 6.914c.225.13.63.107.905-.052l6.463-3.731c.275-.159.315-.392.09-.522l-5.701-3.292c-.224-.13-.63-.107-.904.052l-6.463 3.732c-.275.158-.315.392-.09.522l5.7 3.291zm18.355 20.931 6.463-3.732c.275-.158.315-.392.09-.522l-5.701-3.292c-.224-.13-.63-.106-.905.052l-6.463 3.731c-.274.159-.315.392-.09.522l5.7 3.292c.227.131.632.107.906-.051zm-49.222-16.938c.225.13.63.107.904-.052l6.463-3.731c.275-.158.315-.393.09-.522l-1.518-.876c-.225-.13-.63-.107-.904.052l-6.463 3.731c-.274.159-.315.392-.09.522l1.518.876zm-77.55 47.189c.225.13.63.107.904-.052l6.463-3.731c.275-.159.315-.392.09-.522l-5.701-3.291c-.225-.13-.63-.107-.904.052l-6.463 3.732c-.274.158-.315.392-.089.522l5.7 3.29z"/><path style="fill:#263238" d="m248.145 356.458 1.325.765 35.197 20.317 62.594-36.139 1.303-.743-36.522-21.081z"/><path style="fill:#37474f" d="m346.677 341.738-34.635-19.982-61.989 35.803 34.614 19.981z"/><path style="fill:#27debf" d="M386.217 63.423c0-2.635-.919-4.491-2.408-5.366a2549.28 2549.28 0 0 0-11.746-6.781c-1.503-.856-3.573-.725-5.858.594L202.95 146.126v54.03l11.698 6.753 163.256-94.255c4.591-2.651 8.313-9.098 8.313-14.399V63.423z"/><path style="opacity:.15" d="M386.217 63.423c0-2.635-.919-4.491-2.408-5.366a2549.28 2549.28 0 0 0-11.746-6.781c-1.503-.856-3.573-.725-5.858.594L202.95 146.126v54.03l11.698 6.753 163.256-94.255c4.591-2.651 8.313-9.098 8.313-14.399V63.423z"/><path style="fill:#27debf" d="M377.904 58.624c4.591-2.651 8.313-.502 8.313 4.8v34.832c0 5.302-3.722 11.748-8.313 14.399L214.648 206.91v-54.03l163.256-94.256z"/><path style="fill:#fafafa" d="M376.228 108.204c3.082-1.78 5.604-6.147 5.604-9.706V66.321c0-2.536-1.797-3.574-3.994-2.306l-159.904 92.387v43.26l158.294-91.458z"/><path style="fill:#455a64" d="M245.805 172.976c0 .248-.059.495-.176.741-.117.249-.256.419-.417.512l-2.762 1.595c-.161.093-.3.083-.417-.03-.116-.111-.175-.291-.175-.539v-8.54c0-.967-.153-1.655-.46-2.063-.308-.406-.789-.422-1.447-.041-.658.379-1.137.949-1.437 1.705-.299.76-.449 1.622-.449 2.589v8.54c0 .248-.059.495-.176.742-.116.248-.255.418-.416.511l-2.763 1.595c-.161.094-.3.084-.416-.029-.118-.112-.176-.291-.176-.539V157.58c0-.248.058-.495.176-.742.116-.248.255-.418.416-.512l2.763-1.595c.161-.093.3-.082.416.03.117.112.176.292.176.539v7.189c.248-.615.636-1.295 1.162-2.037.526-.743 1.132-1.311 1.819-1.709.701-.404 1.345-.625 1.93-.658a1.953 1.953 0 0 1 1.502.534c.416.39.741 1.001.975 1.833.234.832.352 1.913.352 3.24v9.284zM253.389 162.656c0 .518.073.875.219 1.071.146.196.388.198.725.004l1.753-1.013c.161-.092.3-.082.417.029.116.113.175.293.175.541v3.408c0 .248-.059.495-.175.742-.117.248-.256.418-.417.512l-2.082 1.201c-.688.398-1.313.605-1.875.627s-1.041-.141-1.436-.487c-.394-.346-.701-.866-.92-1.561-.219-.694-.329-1.559-.329-2.595v-5.672l-1.622.938c-.161.093-.3.084-.417-.029-.116-.112-.175-.293-.175-.541v-3.408c0-.248.059-.495.175-.742.117-.247.256-.418.417-.512l1.622-.936v-5.502c0-.248.059-.495.175-.742.117-.247.256-.418.417-.512l2.763-1.594c.16-.094.299-.082.417.029.116.112.175.293.175.539v5.502l2.478-1.43c.16-.093.299-.082.417.029.116.113.175.293.175.54v3.409c0 .248-.059.496-.175.742-.118.249-.257.418-.417.511l-2.478 1.431v5.471zM263.781 156.656c0 .518.072.875.219 1.072.147.196.388.197.725.004l1.753-1.013c.16-.093.299-.083.417.028.116.113.175.294.175.541v3.409c0 .248-.059.495-.175.741-.118.249-.257.419-.417.512l-2.082 1.202c-.688.397-1.313.605-1.875.626-.563.021-1.041-.141-1.436-.486-.394-.346-.701-.866-.92-1.561-.219-.695-.329-1.561-.329-2.596v-5.671l-1.622.936c-.161.094-.3.084-.417-.029-.116-.111-.175-.292-.175-.54v-3.409c0-.247.059-.494.175-.742.117-.246.256-.418.417-.511l1.622-.936v-5.502c0-.247.059-.494.175-.742.117-.246.256-.418.417-.511l2.763-1.595c.16-.093.299-.082.417.029.116.113.175.293.175.54v5.502l2.478-1.431c.16-.092.299-.082.417.03.116.112.175.292.175.54v3.408c0 .248-.059.496-.175.743-.118.249-.257.417-.417.511l-2.478 1.43v5.471zM275.816 156.897c-.423.245-.796.393-1.117.443-.322.051-.6.042-.833-.025a1.515 1.515 0 0 1-.593-.316 2.616 2.616 0 0 1-.394-.431v7.189c0 .247-.06.495-.176.742-.117.248-.256.418-.416.511l-2.764 1.596c-.16.092-.299.082-.416-.031-.117-.111-.176-.291-.176-.539v-22.143c0-.246.059-.494.176-.742.117-.246.256-.418.416-.51l2.653-1.532c.16-.093.3-.082.417.03.116.111.175.292.175.539v.776c.131-.3.275-.619.428-.954a6.094 6.094 0 0 1 1.402-1.941 6.394 6.394 0 0 1 1.217-.889c.658-.379 1.279-.586 1.864-.621a2.054 2.054 0 0 1 1.534.533c.439.387.793.988 1.063 1.799.271.811.42 1.873.449 3.183.015.329.022.781.022 1.354a35.5 35.5 0 0 1-.022 1.38c-.029 1.345-.179 2.579-.449 3.703-.271 1.124-.624 2.132-1.063 3.026a10.084 10.084 0 0 1-1.534 2.32c-.584.653-1.205 1.171-1.863 1.55zm.987-8.739c.043-.654.043-1.285 0-1.89-.044-.762-.212-1.351-.505-1.769-.292-.415-.781-.426-1.468-.029-.322.186-.6.426-.833.718a4.274 4.274 0 0 0-.581.96 6.212 6.212 0 0 0-.362 1.07 6.94 6.94 0 0 0-.175 1.079c-.03.354-.044.757-.044 1.207 0 .45.014.835.044 1.155.028.321.087.613.175.879a1.8 1.8 0 0 0 .362.65.854.854 0 0 0 .581.289c.233.023.511-.059.833-.244a3.318 3.318 0 0 0 1.468-1.725 7.5 7.5 0 0 0 .505-2.35zM286.821 137.481c0 .248-.059.495-.175.742-.117.248-.256.418-.417.512l-2.871 1.657c-.162.093-.301.083-.417-.03-.117-.111-.175-.291-.175-.539v-4.422c0-.247.058-.494.175-.742.116-.248.255-.418.417-.511l2.871-1.657c.161-.094.3-.084.417.028.116.113.175.294.175.54v4.422zm0 11.814c0 .248-.059.494-.175.741-.117.249-.256.419-.417.511l-2.871 1.658c-.162.094-.301.084-.417-.029-.117-.113-.175-.292-.175-.54v-4.422c0-.247.058-.495.175-.743.116-.246.255-.416.417-.51l2.871-1.658c.161-.092.3-.082.417.029.116.113.175.293.175.541v4.422zM295.942 119.422c.072-.289.183-.582.328-.881.146-.298.358-.527.637-.688l2.718-1.569c.131-.076.244-.068.34.023.095.092.143.238.143.441 0 .09-.015.199-.044.329l-7.388 31.571c-.06.258-.162.543-.307.853a1.599 1.599 0 0 1-.658.717l-2.675 1.544c-.132.076-.245.068-.34-.022-.096-.091-.143-.239-.143-.441 0-.09.015-.2.044-.33l7.345-31.547zM303.462 115.08c.073-.289.183-.582.329-.881a1.57 1.57 0 0 1 .636-.688l2.719-1.569c.131-.076.244-.068.34.023.095.092.142.238.142.442 0 .09-.014.199-.044.329l-7.387 31.571a4.33 4.33 0 0 1-.308.853c-.146.31-.366.548-.657.717l-2.676 1.544c-.131.076-.244.068-.339-.022-.096-.091-.143-.239-.143-.441 0-.09.014-.2.044-.33l7.344-31.548zM317.953 114.68c.219-.126.387-.132.504-.02a.883.883 0 0 1 .241.4l1.622 6.726 1.623-8.599c.043-.205.123-.432.241-.68a1.23 1.23 0 0 1 .504-.562l2.718-1.569c.147-.084.271-.077.373.021.103.099.153.261.153.485 0 .09-.007.184-.021.282l-3.486 17.641a3.21 3.21 0 0 1-.229.705c-.11.244-.274.43-.494.557l-2.499 1.442c-.219.126-.38.13-.482.008a1.335 1.335 0 0 1-.241-.435l-1.557-6.188-1.556 7.986c-.059.235-.14.474-.241.712a1.13 1.13 0 0 1-.483.55l-2.499 1.442c-.219.127-.383.132-.493.015a.976.976 0 0 1-.229-.44l-3.486-13.615a1.545 1.545 0 0 1 .132-.92c.102-.216.226-.367.372-.451l2.719-1.57c.22-.126.387-.132.505-.02a.88.88 0 0 1 .24.4l1.622 6.726 1.623-8.599c.044-.205.124-.432.241-.68a1.24 1.24 0 0 1 .504-.562l2.059-1.188zM336.938 103.719c.22-.127.387-.133.504-.021a.882.882 0 0 1 .241.401l1.622 6.725 1.623-8.599c.043-.204.124-.432.241-.679.117-.248.285-.436.504-.563l2.719-1.568c.146-.085.271-.078.373.021.102.099.152.261.152.485 0 .09-.007.184-.02.282l-3.486 17.641a3.205 3.205 0 0 1-.23.706 1.175 1.175 0 0 1-.493.556l-2.5 1.442c-.219.127-.379.13-.481.008a1.322 1.322 0 0 1-.241-.434l-1.557-6.189-1.557 7.986a4.83 4.83 0 0 1-.241.713c-.102.24-.263.422-.483.549l-2.499 1.443c-.22.127-.384.131-.493.014a.954.954 0 0 1-.23-.439l-3.486-13.615a1.532 1.532 0 0 1 .133-.92c.101-.217.226-.367.372-.451l2.719-1.57c.219-.127.387-.133.504-.021s.197.247.241.401l1.622 6.725 1.623-8.599c.044-.205.123-.432.241-.679.116-.248.284-.436.504-.563l2.059-1.188zM355.925 92.758c.219-.127.387-.133.504-.021a.896.896 0 0 1 .241.401l1.622 6.726 1.623-8.6a3.07 3.07 0 0 1 .241-.679c.116-.247.284-.435.504-.562l2.718-1.569c.147-.085.271-.077.373.021.103.1.153.262.153.486 0 .09-.007.184-.022.281l-3.486 17.641c-.044.229-.12.464-.229.707a1.18 1.18 0 0 1-.494.555l-2.499 1.443c-.219.127-.38.129-.482.008a1.35 1.35 0 0 1-.241-.434l-1.557-6.189-1.556 7.986a4.83 4.83 0 0 1-.241.713 1.137 1.137 0 0 1-.483.549l-2.499 1.443c-.219.126-.383.131-.493.014a.977.977 0 0 1-.23-.44l-3.486-13.615a1.548 1.548 0 0 1 .132-.92c.102-.216.226-.366.372-.451l2.719-1.569c.22-.127.387-.133.505-.021a.894.894 0 0 1 .24.401l1.622 6.726 1.623-8.6c.044-.205.124-.432.241-.679.117-.247.285-.435.504-.562l2.061-1.19zM368.75 101.993c0 .248-.059.495-.176.742-.116.248-.256.418-.416.511l-2.872 1.658c-.161.093-.3.083-.417-.029-.117-.113-.175-.292-.175-.54v-4.422c0-.247.058-.495.175-.743.117-.247.256-.417.417-.51l2.872-1.658c.16-.093.3-.083.416.029.117.113.176.293.176.54v4.422z"/><path style="fill:#37474f" d="m207.444 137.153.002-.004-.078-.048-.008-.005-20.006-11.877-.018-.011-.11-.067-.002.005c-8.811-5.312-20.569-4.475-33.215 3.782-25.406 16.588-44.765 56.823-43.24 89.867.76 16.47 6.567 28.042 15.345 33.455l-.002.003.078.047.01.006 20.01 11.88.008.005.093.056.002-.004c8.814 5.327 20.581 4.495 33.238-3.769 25.405-16.588 44.765-56.823 43.24-89.867-.762-16.47-6.569-28.041-15.347-33.454z"/><path style="fill:#263238" d="m145.566 263.778-19.362-11.473h-.014l-.085-.06c-8.774-5.426-14.578-16.997-15.336-33.445-.68-14.737 2.802-30.895 9.102-45.739l.127-.326 19.886 12.202c-6.315 14.845-9.783 31.003-9.103 45.74.744 16.117 6.321 27.539 14.785 33.101z"/><path style="fill:#455a64" d="M179.548 260.474c25.405-16.588 44.765-56.823 43.24-89.867-1.524-33.043-23.356-46.383-48.762-29.794-25.406 16.588-44.765 56.823-43.24 89.866 1.526 33.044 23.357 46.383 48.762 29.795z"/><path style="fill:#27debf" d="M165.21 251.748c-3.398 0-6.596-.822-9.471-2.475-8.003-4.604-12.594-15.157-12.594-28.957 0-25.387 15.434-55.018 34.403-66.054 8.626-5.019 17.055-5.664 23.732-1.823 8.003 4.602 12.594 15.157 12.594 28.957 0 25.386-15.434 55.018-34.402 66.054-4.913 2.858-9.763 4.298-14.262 4.298zm26.595-97.949c-3.829 0-8.025 1.264-12.332 3.77-17.922 10.425-32.501 38.573-32.501 62.747 0 12.394 3.891 21.739 10.675 25.642 5.442 3.128 12.511 2.487 19.902-1.814 17.921-10.426 32.5-38.574 32.5-62.747 0-12.394-3.891-21.739-10.675-25.642-2.272-1.308-4.826-1.956-7.569-1.956z"/><path style="fill:#27debf" d="M165.205 188.268c-4.206 0-8.078-1.31-11.423-3.93l1.77-2.258c5.845 4.58 13.743 4.382 22.237-.562 8.802-5.121 17.073-14.605 23.288-26.705l2.553 1.311c-6.464 12.582-15.128 22.481-24.398 27.875-4.89 2.844-9.64 4.269-14.027 4.269zM155.944 246.897l-2.553-1.311c6.462-12.581 15.127-22.48 24.397-27.874 9.581-5.572 18.617-5.691 25.449-.34l-1.77 2.258c-5.846-4.578-13.743-4.378-22.236.563-8.803 5.12-17.073 14.604-23.287 26.704z"/><path style="fill:#27debf" d="M174.807 248.325c-1.329 0-2.632-.357-3.874-1.072-6.742-3.878-10.93-17.851-10.93-36.466 0-25.663 7.813-50.31 17.786-56.112 2.823-1.642 5.69-1.719 8.3-.218 6.741 3.878 10.929 17.851 10.929 36.467 0 25.662-7.813 50.31-17.785 56.112-1.478.859-2.968 1.289-4.426 1.289zm7.4-92.071c-.955 0-1.942.3-2.975.901-8.868 5.158-16.36 29.719-16.36 53.632 0 19.701 4.767 31.262 9.49 33.979 1.714.986 3.49.917 5.427-.21 8.868-5.158 16.359-29.719 16.359-53.632 0-19.702-4.767-31.263-9.49-33.979-.8-.46-1.613-.691-2.451-.691z"/><path style="fill:#27debf" d="M177.076 155.915h2.869v89.881h-2.869z"/><path transform="rotate(-30.193 178.53 200.872)" style="fill:#27debf" d="M139.81 199.421h77.4v2.87h-77.4z"/><path style="fill:#27debf" d="M412.591 137.483c-.333-.693-.746-1.13-1.194-1.392l.008-.001v-.001l-2.981-1.721v.008c-1.297-.745-2.881-.008-3.72.507l-1.86-1.074c-2.258-1.363-5.395 1.488-6.098 2.173l-.804-.464v.001c-1.062-.64-2.507-.236-3.788.412v-10.836c0-1.188-.408-2.028-1.068-2.441l.003-.002-.031-.018-.05-.029-2.925-1.691-.007-.004-.021-.012-.001.002c-.69-.385-1.636-.323-2.68.28-2.113 1.22-3.826 4.187-3.826 6.626v33.192a13.28 13.28 0 0 0-.456-.212c-2.615-1.842-5.359-2.938-7.783-2.507-2.313.411-4.379 2.381-4.979 3.439-1.266 2.231.822 3.63 3.512 6.706 2.665 3.048 5.017 6.719 7.445 8.984 2.428 2.265 4.188 2.854 4.188 2.854v4.342l2.954 1.706 22.48-12.979v-4.342s2.79-11.121 3.681-15.769c.892-4.646 1.715-12.173.001-15.737z"/><path style="opacity:.8;fill:#fff" d="M412.591 137.483c-.333-.693-.746-1.13-1.194-1.392l.008-.001v-.001l-2.981-1.721v.008c-1.297-.745-2.881-.008-3.72.507l-1.86-1.074c-2.258-1.363-5.395 1.488-6.098 2.173l-.804-.464v.001c-1.062-.64-2.507-.236-3.788.412v-10.836c0-1.188-.408-2.028-1.068-2.441l.003-.002-.031-.018-.05-.029-2.925-1.691-.007-.004-.021-.012-.001.002c-.69-.385-1.636-.323-2.68.28-2.113 1.22-3.826 4.187-3.826 6.626v33.192a13.28 13.28 0 0 0-.456-.212c-2.615-1.842-5.359-2.938-7.783-2.507-2.313.411-4.379 2.381-4.979 3.439-1.266 2.231.822 3.63 3.512 6.706 2.665 3.048 5.017 6.719 7.445 8.984 2.428 2.265 4.188 2.854 4.188 2.854v4.342l2.954 1.706 22.48-12.979v-4.342s2.79-11.121 3.681-15.769c.892-4.646 1.715-12.173.001-15.737z"/><path style="opacity:.2;fill:#27debf" d="M392.157 135.968v3.676l.007-.007c.117-.103 1.385-1.2 2.887-1.975l-2.894-1.694zm13.579-1.598a6.604 6.604 0 0 0-1.029.514l.953.555c.528.274 1.015.768 1.413 1.55 0 0 .734-.59 1.701-.953l-3.038-1.666zm-6.995.035c-.94.59-1.694 1.282-1.996 1.577l1.948 1.132c.034.021.075.034.11.062.281.144.535.363.754.658l.007-.007c.089-.089.933-.953 2.071-1.68l-2.894-1.742zm-17.193-6.598V161c.987.48 1.982 1.104 2.956 1.824v-33.309l-2.956-1.708zm10.595 8.155.014.007v-.034l-.014.027zm-9.903 43.15c-2.428-2.263-4.78-5.932-7.441-8.984-2.524-2.887-4.526-4.3-3.703-6.309l-2.956-1.708c-.823 2.009 1.173 3.422 3.703 6.316 2.668 3.045 5.013 6.714 7.441 8.984 2.435 2.263 4.19 2.853 4.19 2.853v4.341l2.956 1.708v-4.341c.001 0-1.762-.59-4.19-2.86z"/><path style="opacity:.1" d="M392.157 135.968v3.676l.007-.007c.117-.103 1.385-1.2 2.887-1.975l-2.894-1.694zm13.579-1.598a6.604 6.604 0 0 0-1.029.514l.953.555c.528.274 1.015.768 1.413 1.55 0 0 .734-.59 1.701-.953l-3.038-1.666zm-6.995.035c-.94.59-1.694 1.282-1.996 1.577l1.948 1.132c.034.021.075.034.11.062.281.144.535.363.754.658l.007-.007c.089-.089.933-.953 2.071-1.68l-2.894-1.742zm-17.193-6.598V161c.987.48 1.982 1.104 2.956 1.824v-33.309l-2.956-1.708zm10.595 8.155.014.007v-.034l-.014.027zm-9.903 43.15c-2.428-2.263-4.78-5.932-7.441-8.984-2.524-2.887-4.526-4.3-3.703-6.309l-2.956-1.708c-.823 2.009 1.173 3.422 3.703 6.316 2.668 3.045 5.013 6.714 7.441 8.984 2.435 2.263 4.19 2.853 4.19 2.853v4.341l2.956 1.708v-4.341c.001 0-1.762-.59-4.19-2.86z"/><path style="fill:#27debf" d="M386.43 186.311v-4.342s-1.76-.589-4.188-2.854-4.78-5.936-7.445-8.984c-2.689-3.076-4.777-4.475-3.512-6.706.6-1.057 2.666-3.027 4.979-3.439 2.565-.456 5.489.796 8.239 2.835v-33.309c0-2.44 1.713-5.406 3.826-6.626 2.113-1.22 3.826-.231 3.826 2.209v14.548s5.272-4.682 7.402-1.811c0 0 5.179-5.426 7.517-.843 0 0 3.803-3.071 5.517.493 1.715 3.564.891 11.091 0 15.738-.891 4.648-3.681 15.769-3.681 15.769v4.342l-22.48 12.98z"/><path style="opacity:.65;fill:#fff" d="M386.43 186.311v-4.342s-1.76-.589-4.188-2.854-4.78-5.936-7.445-8.984c-2.689-3.076-4.777-4.475-3.512-6.706.6-1.057 2.666-3.027 4.979-3.439 2.565-.456 5.489.796 8.239 2.835v-33.309c0-2.44 1.713-5.406 3.826-6.626 2.113-1.22 3.826-.231 3.826 2.209v14.548s5.272-4.682 7.402-1.811c0 0 5.179-5.426 7.517-.843 0 0 3.803-3.071 5.517.493 1.715 3.564.891 11.091 0 15.738-.891 4.648-3.681 15.769-3.681 15.769v4.342l-22.48 12.98z"/><g style="opacity:.1"><path d="M392.155 145.89s.48-6.638 2.919-8.217l-.087.025c-1.552.81-2.832 1.945-2.832 1.945v-.125c-.027.083 0 .125 0 .125v6.247zM399.557 137.832v6.073s.673-6.244 2.073-7.753c-1.192.76-2.068 1.675-2.073 1.68zM407.075 136.989v6.095s.371-6.14 1.693-7.046c-.962.362-1.689.948-1.693.951z"/></g><path style="opacity:.15" d="M336.526 311.399c-17.271 8.606-25.111 17.649-16.17 23.984 8.94 6.335 33.271 14.914 33.271 14.914l3.19 10.723 35.345-20.406v-12.139s-21.808-15.035-30.324-17.931c-8.516-2.897-15.19-4.189-25.312.855z"/><path style="fill:#ffa8a7" d="M385.263 366.131s-5.338 13.084-5.61 18.245c-.283 5.378-1.583 7.159-.672 13.009.199 1.274.868 3.828 1.035 4.862.149.921-.197 1.662-1.382 1.907-2.334.484-6.21-3.9-8.054-8.67-1.844-4.77-4.458-15.53-4.621-16.819-.157-1.242.257-2.788.739-3.765.846-1.714 1.072-1.949 1.072-1.949.772-2.341 1.143-6.792 1.793-9.871l15.7 3.051z"/><path style="fill:#263238" d="M361.396 383.568s-.589 1.074-.625 1.763c-.056 1.073 2.367 4.607 3.317 5.894.95 1.287 1.88 2.899 1.75 6.113-.139 3.435 1.378 6.74 3.595 9.572 2.217 2.832 6.066 5.933 11.731 7.677 5.665 1.743 7.663-1.095 7.663-1.095s1.757-2.734.701-3.854c-1.058-1.12-28.132-26.07-28.132-26.07z"/><path style="fill:#455a64" d="M367.771 372.952c-.172-.006-.477-.055-.921.48-.168.202-1.202 2.75-2.059 4.088-.918 1.432-3.107 3.877-3.395 6.049 1.311 4.2 5.251 7.122 5.843 11.087.591 3.965.658 8.567 6.752 13.42 6.094 4.852 12.359 5.354 14.611 4.069 2.252-1.284 2.046-3.697-1.093-8.292-3.332-4.877-5.576-15.444-5.577-15.448-.311-1.462-.472-3.005-.589-4.494-.114-1.447.307-2.993.42-4.448.053-.688.08-1.428-.284-2.015-.365-.586-1.04-.889-1.676-1.159-1.016-.431-2.043-.866-3.13-1.061-1.087-.195-2.254-.133-3.226.391-.703.378-1.278.98-2.015 1.286a2.885 2.885 0 0 1-2.992-.535c-1.158-1.071-.987-2.035-.81-2.75-.021-.021.141-.668.141-.668z"/><path style="fill:#fafafa" d="M370.429 404.185s2.361-4.801 8.831-4.776c6.47.025 8.709 3.317 9.694 5.253 1.172 2.306 2.394 6.485-.277 7.684-2.885 1.296-6.225.895-11.48-1.739-5.254-2.633-6.768-6.422-6.768-6.422zM371.608 384.695a.668.668 0 0 0 .59-.003c1-.509 6.288-1.616 9.368 1.242.399-.32.318-.905-.193-1.729-3.605-2.289-8.61-1.267-9.817-.651a.615.615 0 0 0-.251.86.678.678 0 0 0 .303.281zM382.231 389.705c.222-.573-.056-1.457-.374-1.778-3.555-1.929-8.206-.965-9.363-.376a.616.616 0 0 0-.251.86.682.682 0 0 0 .893.278c.972-.493 5.988-1.537 9.095 1.016zM384.87 398.448c.028-.791-.255-1.576-.827-2.342-3.591-2.165-8.481-1.165-9.671-.558a.615.615 0 0 0-.251.86.682.682 0 0 0 .892.278c1.056-.537 6.886-1.736 9.857 1.762zM373.484 392.692a.668.668 0 0 0 .59-.003c.989-.504 6.168-1.582 9.262 1.153.141-.6-.028-1.244-.54-1.916-3.557-1.93-8.207-.965-9.363-.375a.615.615 0 0 0-.251.86.692.692 0 0 0 .302.281z"/><path style="fill:#ffa8a7" d="M391.013 382.199s2.646 15.959 5.588 22.151 4.454 9.182 8.507 13.867c.883 1.02 2.893 2.916 3.614 3.741.643.735.747 1.584-.168 2.458-1.803 1.724-9.444 2.133-13.726-1.078-4.282-3.21-8.182-10.048-10.735-12.632a42.17 42.17 0 0 1-2.722-3.017c-.828-1.016-.601-1.981-.675-3.118-.036-.55.044-2.051.044-2.051-.585-2.687-2.171-6.904-3.013-9.523l13.286-10.798z"/><path style="fill:#263238" d="M379.231 414.579s-.078 1.28.196 1.947c.427 1.04 4.298 3.302 5.772 4.096 1.474.793 3.074 1.904 4.387 5.003 1.402 3.312 4.314 5.763 7.678 7.453 3.363 1.689 8.39 2.905 14.53 2.025 6.139-.881 6.762-4.459 6.762-4.459s.441-3.372-1.059-3.96c-1.501-.589-38.266-12.105-38.266-12.105z"/><path style="fill:#455a64" d="M380.521 401.686c-.166.071-.476.16-.657.865-.069.267.091 3.139-.123 4.788-.229 1.764-1.208 5.056-.511 7.24 3.117 3.388 8.151 4.394 10.482 7.882 2.331 3.488 4.45 7.813 12.384 9.683s14.086-.454 15.644-2.676c1.557-2.221.284-4.412-4.738-7.358-5.331-3.127-12.175-12.123-12.178-12.127-.947-1.245-1.789-2.633-2.565-3.99-.755-1.319-1.046-2.97-1.589-4.397-.257-.675-.562-1.387-1.169-1.779-.607-.392-1.382-.377-2.104-.348-1.154.046-2.32.094-3.435.395-1.115.301-2.192.881-2.878 1.811-.496.672-.771 1.498-1.333 2.117-.753.829-2.002 1.167-3.07.83-1.574-.496-1.843-1.484-1.995-2.241-.028-.011-.165-.695-.165-.695z"/><path style="fill:#fafafa" d="M396.989 430.054s.09-5.597 6.223-8.464c6.134-2.867 9.723-.752 11.52.641 2.139 1.658 5.162 5.067 3.171 7.395-2.151 2.514-5.491 3.628-11.64 3.482-6.15-.145-9.274-3.054-9.274-3.054zM389.398 411.084a.695.695 0 0 0 .557-.267c.719-.929 5.228-4.338 9.42-3.009.234-.481-.104-.999-.955-1.55-4.434-.556-8.714 2.647-9.58 3.768a.644.644 0 0 0 .147.926c.124.09.267.132.411.132zM401.689 411.08c-.046-.641-.704-1.354-1.147-1.516-4.226-.238-8.196 2.753-9.028 3.827a.644.644 0 0 0 .147.926.718.718 0 0 0 .969-.135c.697-.902 4.978-4.13 9.059-3.102zM408.091 418.174c-.327-.761-.946-1.378-1.829-1.846-4.365-.445-8.546 2.686-9.401 3.792a.644.644 0 0 0 .147.926.72.72 0 0 0 .97-.136c.757-.98 5.739-4.719 10.113-2.736zM394.746 417.813a.695.695 0 0 0 .557-.267c.711-.918 5.13-4.252 9.279-3.046-.135-.631-.583-1.165-1.367-1.572-4.228-.238-8.197 2.753-9.028 3.827a.644.644 0 0 0 .147.926.713.713 0 0 0 .412.132z"/><path style="fill:#27debf" d="M355.802 291.319c6.543 4.796 29.33 17.95 38.583 26.515 2.673 2.474 3.553 5.731 2.895 12.83-.892 9.634-8.463 42.466-8.463 42.466-1.042 1.854-2.877-1.663-2.877-1.663l-36.108-45.842 5.97-34.306z"/><path style="opacity:.3" d="M355.802 291.319c6.543 4.796 29.33 17.95 38.583 26.515 2.673 2.474 3.553 5.731 2.895 12.83-.892 9.634-8.463 42.466-8.463 42.466-1.042 1.854-2.877-1.663-2.877-1.663l-36.108-45.842 5.97-34.306z"/><path style="opacity:.3" d="M387.25 362.907c-8.355-6.981-35.343-49.563-35.343-49.563l.014-.013c3.675-3.105 5.571-13.871 5.571-13.871 1.457 4.154-.082 10.418-1.213 12.708 2.125 1.839 14.133 11.714 22.474 18.317 2.092 1.656 4.231 3.701 4.948 7.469 1.718 9.032 3.746 23.126 3.549 24.953z"/><path style="fill:#27debf" d="m355.802 291.319-46.481 10.29c2.27 8.531 2.917 12.938 5.286 17.431 2.377 4.508 5.009 9.315 17.099 15.268 11.639 5.73 25.857 11.633 28.702 12.986 2.143 1.02 3.165 5.306 4.134 10.863 1.015 5.829 1.107 10.39 6.874 22.622 5.645 11.978 6.799 14.566 6.799 14.566s8.735.908 14.532-4.193c0 0-7.91-41.067-9.597-48.46-.942-4.13-.961-6.306-6.088-10.844-4.395-3.89-24.026-18.749-24.026-18.749s7.796-10.471 2.766-21.78z"/><path style="opacity:.3" d="m355.802 291.319-46.481 10.29c2.27 8.531 2.917 12.938 5.286 17.431 2.377 4.508 5.009 9.315 17.099 15.268 11.639 5.73 25.857 11.633 28.702 12.986 2.143 1.02 3.165 5.306 4.134 10.863 1.015 5.829 1.107 10.39 6.874 22.622 5.645 11.978 6.799 14.566 6.799 14.566s8.735.908 14.532-4.193c0 0-7.91-41.067-9.597-48.46-.942-4.13-.961-6.306-6.088-10.844-4.395-3.89-24.026-18.749-24.026-18.749s7.796-10.471 2.766-21.78z"/><path style="fill:#ffa8a7" d="M409.228 214.105c-.782-.078-1.587.125-2.303.463-.849.4-1.6.979-2.356 1.536a59.568 59.568 0 0 1-3.556 2.426c-1.081.682-2.219 1.445-3.505 1.657-.431.071-1.349.086-.88-.567.612-.853 1.299-1.663 1.756-2.607.457-.945.662-2.075.259-3.043-.122-.292-.311-.575-.598-.708-.407-.187-.614.03-.847.296-.245.281-.539.519-.82.768-.58.512-1.16 1.025-1.733 1.546-3.344 3.037-7.41 5.67-8.842 10.059-.207.635-1.154 3.529-1.184 8.347-.03 4.819-.315 21.59-.315 21.59s-13.32-11.203-19.097-16.03c-2.785-2.328-6.678-5.154-10.968-5.561-3.035-.288-4.807-.27-4.807-.27l9.085 22.023s17.178 12.78 25.414 17.18c7.433 3.971 11.047 1.111 11.945-.973 1.489-3.454 3.017-5.073.922-24.352-.15-1.492-.335-5.76-.503-7.25-.216-3.112.136-6.274 1.342-6.95 2.218-1.243 4.39-2.598 6.302-4.274 1.259-1.103 2.403-2.349 3.331-3.745.389-.585 1.067-1.435 1.14-2.151.074-.725-.244-1.493-.024-2.209.15-.489.479-.887.602-1.409.251-1.063.159-2.282.835-3.202.372-.506.991-.962.905-1.584-.068-.498-.581-.812-1.069-.931a2.757 2.757 0 0 0-.431-.075z"/><path style="fill:#f28f8f" d="M395.64 222.47c-.374 2.599-2.229 5.846-3.473 6.936 0 0 2.077-1.179 2.952-2.993.96-1.986.851-2.996.521-3.943z"/><path style="fill:#27debf" d="M348.515 233.559c4.637.202 8.25.305 12.203 2.587 3.953 2.282 21.607 17.06 21.607 17.06s.174-7.523.626-11.487c.313-2.747.768-3.611 1.626-3.474 0 0 1.531 2.348 5.868 2.673 4.338.325 5.796-1.475 5.796-1.475s1.265-.298 1.72 1.475c.455 1.773 1.273 20.991.482 26.529-.792 5.538-3.273 8.111-6.599 8.89-3.326.78-11.036-3.882-20.294-10.108-9.259-6.227-19.313-12.031-19.313-12.031l-3.722-20.639z"/><path style="opacity:.7;fill:#fff" d="M348.515 233.559c4.637.202 8.25.305 12.203 2.587 3.953 2.282 21.607 17.06 21.607 17.06s.174-7.523.626-11.487c.313-2.747.768-3.611 1.626-3.474 0 0 1.531 2.348 5.868 2.673 4.338.325 5.796-1.475 5.796-1.475s1.265-.298 1.72 1.475c.455 1.773 1.273 20.991.482 26.529-.792 5.538-3.273 8.111-6.599 8.89-3.326.78-11.036-3.882-20.294-10.108-9.259-6.227-19.313-12.031-19.313-12.031l-3.722-20.639z"/><path style="opacity:.1" d="M382.325 253.206c-.753 5.158.381 10.789.381 10.789s-3.386-6.542-2.342-12.531l1.961 1.742z"/><path style="fill:#fafafa" d="M310.398 237.62c-.764 4.051-8.461 42.549.293 71.257 15.764 1.859 43.45-5.378 47.601-15.811 0 0-2.797-9.9-4.01-14.741.257-7.943-.002-23.1-.163-27.79-.318-9.294-1.769-16.483-6.38-17.162 0 0-9.259-.366-14.862-.137-4.84.198-8.477.25-8.477.25l-14.002 4.134z"/><path style="fill:#f0f0f0" d="M333.553 298.811c-1.018-2.259-19.73-13.812-19.73-13.812s.285-5.351 1.399-15.198c1.115-9.847 1.443-21.648-2.105-27.579l-3.579.14c-2.023 11.944-6.136 42.613 1.152 66.515 8.405.991 20.197-.604 30.006-3.89-1.808-1.214-6.332-4.376-7.143-6.176z"/><path style="fill:#455a64" d="M322.778 224.45c.031-1.991-3.787-7.943-5.515-12.649-2.89-7.871-3.143-14.936 3.99-18.004 0 0 4.46-7.69 15.703-8.073 11.243-.383 19.885 9.108 16.151 21.796l-30.329 16.93z"/><path style="fill:#ffa8a7" d="M325.557 212.291c-1.468-.001-2.002-2.108-3.01-3.24-1.007-1.131-4.481-2.405-6.718.834-2.077 3.008-.059 7.341 2.209 9.018 2.855 2.112 4.824.074 4.824.074l-.259 15.89s.506 3.523 6.996 5.568c7.496 2.362 13.597-1.585 9.132-6.53l.166-4.187c2.129.481 5.038.74 7.247.404 2.5-.38 4.503-2.263 5.788-6.118 2.508-7.525 1.812-17.561-.778-26.723-2.473 1.956-13.919 5.624-24.228 1.988.368 6.329.065 13.022-1.369 13.022z"/><path style="fill:#263238" d="M321.483 217.196a.93.93 0 1 1-1.86 0 .93.93 0 0 1 1.86 0z"/><path style="fill:#f28f8f" d="M338.899 229.719s-6.256-1.826-8.723-3.557c-1.821-1.277-3.444-3.31-3.837-4.377 0 0 .937 3.354 2.643 5.293 2.986 3.393 9.835 4.96 9.835 4.96l.082-2.319z"/><path style="fill:#263238" d="M338.396 212.205c.016.893-.667 1.629-1.527 1.643-.86.014-1.571-.699-1.587-1.593-.017-.894.667-1.629 1.527-1.643.859-.013 1.57.7 1.587 1.593zM336.694 206.894l-3.366 1.774c-.473-.966-.102-2.147.827-2.637.93-.489 2.067-.103 2.539.863z"/><path style="fill:#f28f8f" d="m337.907 220.39 5.355 1.707c-.528 1.499-2.155 2.332-3.633 1.86-1.48-.471-2.25-2.068-1.722-3.567z"/><path style="fill:#263238" d="m351.105 206.827-3.698-1.013a1.84 1.84 0 0 1 2.29-1.376c1.021.279 1.651 1.349 1.408 2.389zM350.148 210.977c.017.893-.667 1.629-1.527 1.642-.86.013-1.571-.699-1.587-1.593-.017-.893.667-1.629 1.527-1.643.86-.013 1.57.7 1.587 1.594z"/><path style="fill:#37474f" d="M351.871 197.282c3.457-2.464 5.38-5.758 4.462-10.294-1.348 1.355-5.129 1.597-8.438.019-3.528-1.684-9.125-3.969-16.957-2.453-6.108 1.182-9.685 5.827-9.685 9.243 1.195 2.445 2.839 3.747 5.676 5.473 0 0 5.857 4.792 14.74 4.243 5.714-.353 8.679-3.14 8.679-3.14s-3.193.281-4.687-.711c0-.001 3.626-.539 6.21-2.38z"/><path style="fill:#f28f8f" d="m343.451 218.405 4.769-2.176-6.094-8.403z"/><path style="opacity:.15" d="M395.834 319.535a9.056 9.056 0 0 0-1.449-1.701c-5.558-5.145-15.997-11.944-24.868-17.594l-40.356 23.303a.37.37 0 0 0 0 .642l29.308 16.924 37.365-21.574z"/><path style="fill:#37474f" d="M408.07 307.686v.652c0 .956-.509 1.841-1.34 2.323l-46.922 27.089a2.65 2.65 0 0 1-1.335.355 2.7 2.7 0 0 1-1.349-.357l-25.576-14.718a2.692 2.692 0 0 1-1.337-2.323v-.903h.006v.009c0 .116.054.223.17.295l28.087 16.22 49.596-28.642z"/><path style="fill:#263238" d="M358.47 336.323v1.785c.461 0 .925-.117 1.339-.357l46.922-27.089a2.685 2.685 0 0 0 1.343-2.325v-.653l-49.604 28.639z"/><path style="fill:#455a64" d="m408.074 307.684-27.821-16.061a1.602 1.602 0 0 0-1.599 0l-48.266 27.87a.356.356 0 0 0 0 .616l28.082 16.216 49.604-28.641z"/><path style="fill:#37474f" d="m358.214 333.962-15.006-8.654 43.878-25.333 15.083 8.61z"/><path style="fill:#263238" d="m402.169 308.584-.573.33-14.512-8.28-43.301 25.005-.572-.33 43.873-25.335zM350.839 309.887l.277.16 7.354 4.245 13.08-7.551.272-.156-7.632-4.405z"/><path style="fill:#37474f" d="m351.116 310.047 7.354 4.245 13.08-7.551-7.36-4.246z"/><path style="fill:#ffa8a7" d="M365.073 315.143c-2.105-2.087-5.157-4.98-7.722-5.83-.331-.106-.829-.338-1.803-.561.884-.174 1.773-.236 2.636-.527.856-.288 1.673-.762 2.227-1.476.223-.287.38-.746.099-.976a.615.615 0 0 0-.365-.134c-1.922-.058-3.437-.357-5.182-.483-.762-.055-1.619-.157-2.354.043-.716.195-1.43.403-2.132.646-3.188 1.103-6.095 2.096-10.609 1.044l-8.122-4.333s-1.735-.434-4.293 3.897c-2.558 4.331-1.063 6.709-1.063 6.709l9.123 3.15v-.001l.132.051c1.004.376 1.907 1.16 4.305 1.896 2.843.872 6.48-.16 8.95-.291 2.47-.132 6.657 1.01 8.948 1.94 2.291.93 5.042-2.599 6.191-2.174 1.149.425 3.139-.504 1.034-2.59z"/><path style="fill:#f28f8f" d="M354.484 307.393c-1.664-.169-3.497.566-3.497.566s2.054.043 4.561.794c.884-.174 1.773-.236 2.636-.527.756-.255 1.481-.654 2.021-1.236-1.382.939-4.059.572-5.721.403z"/><path style="fill:#27debf" d="M310.398 237.62c2.311.913 5.318 10.547 3.466 19.817l-4.302 28.986s5.27 3.12 12.665 7.7c5.125 3.174 9.518 6.084 9.52 8.435-3.356 1.206-6.372 7.385-5.356 10.606-2.292 2.716-23.45-9.013-30.848-14.073-3.43-2.346-5.159-3.271-3.839-13.861 1.46-11.721 2.461-24.742 4.745-33.431 2.381-9.071 5.034-12.592 13.949-14.179z"/><path style="opacity:.7;fill:#fff" d="M310.398 237.62c2.311.913 5.318 10.547 3.466 19.817l-4.302 28.986s5.27 3.12 12.665 7.7c5.125 3.174 9.518 6.084 9.52 8.435-3.356 1.206-6.372 7.385-5.356 10.606-2.292 2.716-23.45-9.013-30.848-14.073-3.43-2.346-5.159-3.271-3.839-13.861 1.46-11.721 2.461-24.742 4.745-33.431 2.381-9.071 5.034-12.592 13.949-14.179z"/><path style="fill:#37474f" d="M359.226 336.719a3.177 3.177 0 0 0 2.738-.211l46.715-26.971a3.175 3.175 0 0 0 1.545-2.221l5.115-30.499a3.18 3.18 0 0 0-.897-2.78l-48.547 28.033a2.355 2.355 0 0 0-1.141 1.644l-5.528 33.005z"/><path style="fill:#455a64" d="m358.47 336.325.32.183c.141.08.286.15.436.211l5.528-33.007a2.357 2.357 0 0 1 1.141-1.644l48.547-28.033a3.249 3.249 0 0 0-.648-.493l-48.646 28.085a2.355 2.355 0 0 0-1.141 1.644l-5.537 33.054z"/><path style="fill:#263238" d="m365.205 302.691-.753-.435c-.223.297-.381.64-.445 1.015l-5.537 33.054.319.183c.141.08.286.15.437.211l5.528-33.007a2.34 2.34 0 0 1 .451-1.021z"/><path style="fill:#27debf" d="M385.537 308.565c.343-2.042 2.451-4.754 4.709-6.058 2.258-1.303 3.811-.705 3.469 1.337-.343 2.042-2.451 4.754-4.709 6.058-2.259 1.303-3.812.705-3.469-1.337z"/></svg>